<svg width="1024" height="300" viewBox="0 0 1024 300" fill="none" xmlns="http://www.w3.org/2000/svg">
<rect width="1024" height="300" fill="white"/>
<path d="M300.8 215C294.933 215 290.667 213.667 288 211C285.467 208.2 284.2 204.133 284.2 198.8C284.2 195.067 285 191.733 286.6 188.8C288.333 185.867 290.533 183 293.2 180.2L328.2 143.6C333.4 138 337.067 133.2 339.2 129.2C341.467 125.2 342.6 121.2 342.6 117.2C342.6 112.133 340.933 108.333 337.6 105.8C334.267 103.267 329.467 102 323.2 102C320 102 316.6 102.467 313 103.4C309.4 104.2 305.533 105.667 301.4 107.8C297.8 109.4 294.533 109.867 291.6 109.2C288.8 108.533 286.4 107.067 284.4 104.8C282.533 102.533 281.333 99.9333 280.8 97C280.4 94.0667 280.867 91.2 282.2 88.4C283.533 85.4667 285.933 83.0667 289.4 81.2C295.533 77.8667 301.867 75.4667 308.4 74C315.067 72.5333 321.733 71.8 328.4 71.8C339.333 71.8 348.467 73.4 355.8 76.6C363.267 79.8 368.933 84.4667 372.8 90.6C376.667 96.6 378.6 104.067 378.6 113C378.6 118.6 377.733 124.067 376 129.4C374.4 134.733 371.733 140.067 368 145.4C364.4 150.733 359.533 156.4 353.4 162.4L321 194.4V185.2H370.4C375.333 185.2 379.067 186.467 381.6 189C384.267 191.533 385.6 195.2 385.6 200C385.6 204.8 384.267 208.533 381.6 211.2C379.067 213.733 375.333 215 370.4 215H300.8Z" fill="#FB8C00"/>
<path d="M451.922 217.2C434.589 217.2 421.255 210.867 411.922 198.2C402.722 185.4 398.122 167.333 398.122 144C398.122 128.267 400.189 115.067 404.322 104.4C408.455 93.6 414.522 85.4667 422.522 80C430.522 74.5333 440.322 71.8 451.922 71.8C469.389 71.8 482.722 77.9333 491.922 90.2C501.122 102.467 505.722 120.333 505.722 143.8C505.722 159.4 503.655 172.667 499.522 183.6C495.389 194.533 489.322 202.867 481.322 208.6C473.322 214.333 463.522 217.2 451.922 217.2ZM451.922 188C458.322 188 463.055 184.533 466.122 177.6C469.322 170.533 470.922 159.267 470.922 143.8C470.922 128.467 469.322 117.533 466.122 111C463.055 104.333 458.322 101 451.922 101C445.522 101 440.722 104.333 437.522 111C434.455 117.533 432.922 128.467 432.922 143.8C432.922 159.267 434.455 170.533 437.522 177.6C440.722 184.533 445.522 188 451.922 188Z" fill="#EC407A"/>
<path d="M593.044 216.8C587.444 216.8 583.044 215.267 579.844 212.2C576.777 209.133 575.244 204.6 575.244 198.6V191.4H535.044C529.177 191.4 524.577 190.067 521.244 187.4C518.044 184.733 516.444 180.667 516.444 175.2C516.444 172 517.044 168.933 518.244 166C519.444 162.933 521.577 159.267 524.644 155L573.444 83.8C576.11 79.8 579.11 76.8667 582.444 75C585.777 73.1333 589.71 72.2 594.244 72.2C599.31 72.2 603.31 73.7333 606.244 76.8C609.177 79.7333 610.644 84.2667 610.644 90.4V163.6H615.444C620.51 163.6 624.31 164.8 626.844 167.2C629.51 169.6 630.844 173 630.844 177.4C630.844 181.933 629.51 185.4 626.844 187.8C624.31 190.2 620.51 191.4 615.444 191.4H610.644V198.6C610.644 204.467 609.11 209 606.044 212.2C603.11 215.267 598.777 216.8 593.044 216.8ZM575.244 163.6V116.4H580.844L543.244 172.2V163.6H575.244Z" fill="#4CAF50"/>
<path d="M691.766 217.2C680.432 217.2 670.632 215.6 662.366 212.4C654.099 209.067 647.766 204.333 643.366 198.2C638.966 192.067 636.766 184.8 636.766 176.4C636.766 169.6 638.099 163.6 640.766 158.4C643.566 153.2 647.366 149 652.166 145.8C656.966 142.467 662.432 140.467 668.566 139.8V145.6C660.299 143.867 653.566 139.8 648.366 133.4C643.166 127 640.566 119.333 640.566 110.4C640.566 102.267 642.632 95.3333 646.766 89.6C650.899 83.8667 656.832 79.4667 664.566 76.4C672.299 73.3333 681.366 71.8 691.766 71.8C702.299 71.8 711.366 73.3333 718.966 76.4C726.699 79.4667 732.632 83.8667 736.766 89.6C740.899 95.3333 742.966 102.267 742.966 110.4C742.966 116.4 741.766 121.933 739.366 127C737.099 131.933 733.899 136 729.766 139.2C725.766 142.4 721.099 144.467 715.766 145.4V139.8C724.832 141.133 732.232 145.133 737.966 151.8C743.832 158.333 746.766 166.533 746.766 176.4C746.766 184.8 744.566 192.067 740.166 198.2C735.766 204.333 729.432 209.067 721.166 212.4C713.032 215.6 703.232 217.2 691.766 217.2ZM691.766 189.6C698.832 189.6 704.232 188.267 707.966 185.6C711.699 182.8 713.566 178.8 713.566 173.6C713.566 168.267 711.699 164.267 707.966 161.6C704.232 158.933 698.832 157.6 691.766 157.6C684.699 157.6 679.299 158.933 675.566 161.6C671.832 164.267 669.966 168.267 669.966 173.6C669.966 178.8 671.832 182.8 675.566 185.6C679.299 188.267 684.699 189.6 691.766 189.6ZM691.766 129.8C695.632 129.8 698.899 129.2 701.566 128C704.232 126.8 706.232 125.067 707.566 122.8C709.032 120.4 709.766 117.667 709.766 114.6C709.766 109.933 708.166 106.267 704.966 103.6C701.766 100.8 697.366 99.4 691.766 99.4C686.166 99.4 681.766 100.8 678.566 103.6C675.499 106.267 673.966 109.933 673.966 114.6C673.966 119.267 675.499 123 678.566 125.8C681.766 128.467 686.166 129.8 691.766 129.8Z" fill="#29B6F6"/>
<g filter="url(#filter0_d_4_2)">
<path d="M364.88 272.36C363.707 272.36 362.8 272.04 362.16 271.4C361.52 270.733 361.2 269.813 361.2 268.64V249.8H354.92C353.933 249.8 353.173 249.547 352.64 249.04C352.133 248.507 351.88 247.76 351.88 246.8C351.88 245.813 352.133 245.067 352.64 244.56C353.173 244.053 353.933 243.8 354.92 243.8H374.84C375.827 243.8 376.573 244.053 377.08 244.56C377.613 245.067 377.88 245.813 377.88 246.8C377.88 247.76 377.613 248.507 377.08 249.04C376.573 249.547 375.827 249.8 374.84 249.8H368.56V268.64C368.56 269.813 368.253 270.733 367.64 271.4C367.027 272.04 366.107 272.36 364.88 272.36ZM385.413 272.36C384.293 272.36 383.426 272.027 382.813 271.36C382.199 270.693 381.893 269.733 381.893 268.48V255.84C381.893 254.587 382.199 253.627 382.813 252.96C383.426 252.293 384.293 251.96 385.413 251.96C386.559 251.96 387.439 252.293 388.053 252.96C388.693 253.627 389.013 254.587 389.013 255.84V268.48C389.013 269.733 388.706 270.693 388.093 271.36C387.479 272.027 386.586 272.36 385.413 272.36ZM385.413 249.12C384.159 249.12 383.186 248.827 382.493 248.24C381.826 247.653 381.493 246.8 381.493 245.68C381.493 244.587 381.826 243.747 382.493 243.16C383.186 242.573 384.159 242.28 385.413 242.28C386.719 242.28 387.706 242.573 388.373 243.16C389.039 243.747 389.373 244.587 389.373 245.68C389.373 246.8 389.039 247.653 388.373 248.24C387.706 248.827 386.719 249.12 385.413 249.12ZM396.663 272.36C395.543 272.36 394.676 272.053 394.063 271.44C393.449 270.827 393.143 269.933 393.143 268.76V255.52C393.143 254.373 393.436 253.493 394.023 252.88C394.636 252.267 395.503 251.96 396.623 251.96C397.743 251.96 398.596 252.267 399.183 252.88C399.769 253.493 400.063 254.373 400.063 255.52V257.4L399.623 255.76C400.263 254.507 401.169 253.547 402.343 252.88C403.543 252.213 404.903 251.88 406.423 251.88C407.996 251.88 409.289 252.187 410.303 252.8C411.316 253.387 412.076 254.32 412.583 255.6C413.089 256.853 413.343 258.44 413.343 260.36V268.76C413.343 269.933 413.036 270.827 412.423 271.44C411.809 272.053 410.929 272.36 409.783 272.36C408.636 272.36 407.756 272.053 407.143 271.44C406.529 270.827 406.223 269.933 406.223 268.76V260.64C406.223 259.44 406.009 258.587 405.583 258.08C405.183 257.573 404.583 257.32 403.783 257.32C402.716 257.32 401.863 257.667 401.223 258.36C400.583 259.027 400.263 259.933 400.263 261.08V268.76C400.263 271.16 399.063 272.36 396.663 272.36ZM427.72 272.44C425.72 272.44 424.067 272.133 422.76 271.52C421.48 270.907 420.52 269.987 419.88 268.76C419.24 267.507 418.92 265.947 418.92 264.08V257.56H417.56C416.707 257.56 416.04 257.333 415.56 256.88C415.107 256.427 414.88 255.773 414.88 254.92C414.88 254.067 415.107 253.427 415.56 253C416.04 252.547 416.707 252.32 417.56 252.32H418.92V249.84C418.92 248.667 419.227 247.773 419.84 247.16C420.454 246.547 421.334 246.24 422.48 246.24C423.627 246.24 424.507 246.547 425.12 247.16C425.734 247.773 426.04 248.667 426.04 249.84V252.32H429.32C430.2 252.32 430.867 252.547 431.32 253C431.8 253.427 432.04 254.067 432.04 254.92C432.04 255.773 431.8 256.427 431.32 256.88C430.867 257.333 430.2 257.56 429.32 257.56H426.04V263.84C426.04 264.827 426.267 265.56 426.72 266.04C427.2 266.493 427.947 266.72 428.96 266.72C429.334 266.72 429.694 266.68 430.04 266.6C430.387 266.52 430.707 266.48 431 266.48C431.427 266.453 431.774 266.587 432.04 266.88C432.307 267.147 432.44 267.773 432.44 268.76C432.44 269.56 432.32 270.24 432.08 270.8C431.84 271.333 431.414 271.72 430.8 271.96C430.427 272.093 429.92 272.2 429.28 272.28C428.64 272.387 428.12 272.44 427.72 272.44ZM444.956 272.44C442.556 272.44 440.476 272.027 438.716 271.2C436.983 270.347 435.65 269.147 434.716 267.6C433.783 266.053 433.316 264.227 433.316 262.12C433.316 260.093 433.756 258.32 434.636 256.8C435.543 255.253 436.77 254.053 438.316 253.2C439.89 252.32 441.676 251.88 443.676 251.88C445.143 251.88 446.476 252.12 447.676 252.6C448.876 253.053 449.903 253.733 450.756 254.64C451.61 255.52 452.25 256.587 452.676 257.84C453.13 259.093 453.356 260.493 453.356 262.04C453.356 262.573 453.21 262.973 452.916 263.24C452.623 263.48 452.156 263.6 451.516 263.6H439.276V260.24H448.156L447.516 260.76C447.516 259.773 447.383 258.973 447.116 258.36C446.85 257.747 446.45 257.28 445.916 256.96C445.41 256.64 444.77 256.48 443.996 256.48C443.17 256.48 442.45 256.68 441.836 257.08C441.25 257.453 440.796 258.013 440.476 258.76C440.156 259.507 439.996 260.44 439.996 261.56V261.92C439.996 263.813 440.41 265.173 441.236 266C442.09 266.8 443.396 267.2 445.156 267.2C445.743 267.2 446.41 267.133 447.156 267C447.93 266.84 448.663 266.627 449.356 266.36C450.05 266.093 450.65 266.053 451.156 266.24C451.663 266.4 452.05 266.693 452.316 267.12C452.61 267.52 452.77 267.987 452.796 268.52C452.823 269.027 452.703 269.533 452.436 270.04C452.17 270.52 451.73 270.893 451.116 271.16C450.183 271.587 449.183 271.907 448.116 272.12C447.076 272.333 446.023 272.44 444.956 272.44ZM464.104 272.44C462.424 272.44 460.93 272.027 459.624 271.2C458.344 270.373 457.33 269.187 456.584 267.64C455.864 266.093 455.504 264.267 455.504 262.16C455.504 260 455.864 258.16 456.584 256.64C457.33 255.12 458.344 253.947 459.624 253.12C460.93 252.293 462.424 251.88 464.104 251.88C465.57 251.88 466.89 252.227 468.064 252.92C469.237 253.613 470.024 254.507 470.424 255.6H469.984V247.04C469.984 245.867 470.29 244.973 470.904 244.36C471.517 243.747 472.397 243.44 473.544 243.44C474.664 243.44 475.53 243.747 476.144 244.36C476.784 244.973 477.104 245.867 477.104 247.04V268.76C477.104 269.933 476.797 270.827 476.184 271.44C475.597 272.053 474.73 272.36 473.584 272.36C472.464 272.36 471.597 272.053 470.984 271.44C470.37 270.827 470.064 269.933 470.064 268.76V266.48L470.504 268.44C470.13 269.64 469.344 270.613 468.144 271.36C466.97 272.08 465.624 272.44 464.104 272.44ZM466.384 267.2C467.104 267.2 467.744 267.027 468.304 266.68C468.864 266.307 469.29 265.76 469.584 265.04C469.904 264.293 470.064 263.333 470.064 262.16C470.064 260.373 469.717 259.093 469.024 258.32C468.33 257.52 467.45 257.12 466.384 257.12C465.664 257.12 465.024 257.293 464.464 257.64C463.904 257.987 463.464 258.533 463.144 259.28C462.824 260 462.664 260.96 462.664 262.16C462.664 263.92 463.01 265.2 463.704 266C464.397 266.8 465.29 267.2 466.384 267.2ZM496.994 272C495.74 272 494.78 271.68 494.114 271.04C493.474 270.373 493.154 269.427 493.154 268.2V247.6C493.154 246.373 493.474 245.44 494.114 244.8C494.78 244.133 495.74 243.8 496.994 243.8H510.554C511.514 243.8 512.234 244.04 512.714 244.52C513.194 245 513.434 245.693 513.434 246.6C513.434 247.533 513.194 248.253 512.714 248.76C512.234 249.24 511.514 249.48 510.554 249.48H500.194V254.84H509.674C510.607 254.84 511.314 255.08 511.794 255.56C512.3 256.04 512.554 256.747 512.554 257.68C512.554 258.613 512.3 259.32 511.794 259.8C511.314 260.28 510.607 260.52 509.674 260.52H500.194V266.32H510.554C511.514 266.32 512.234 266.573 512.714 267.08C513.194 267.56 513.434 268.253 513.434 269.16C513.434 270.093 513.194 270.8 512.714 271.28C512.234 271.76 511.514 272 510.554 272H496.994ZM524.724 272.44C522.164 272.44 520.271 271.76 519.044 270.4C517.844 269.013 517.244 266.933 517.244 264.16V247.04C517.244 245.867 517.551 244.973 518.164 244.36C518.777 243.747 519.644 243.44 520.764 243.44C521.911 243.44 522.791 243.747 523.404 244.36C524.044 244.973 524.364 245.867 524.364 247.04V263.92C524.364 264.907 524.551 265.627 524.924 266.08C525.324 266.533 525.831 266.76 526.444 266.76C526.631 266.76 526.817 266.747 527.004 266.72C527.217 266.667 527.444 266.627 527.684 266.6C528.137 266.6 528.471 266.773 528.684 267.12C528.924 267.467 529.044 268.173 529.044 269.24C529.044 270.173 528.857 270.88 528.484 271.36C528.111 271.813 527.537 272.107 526.764 272.24C526.551 272.267 526.244 272.307 525.844 272.36C525.444 272.413 525.071 272.44 524.724 272.44ZM541.675 272.44C539.275 272.44 537.195 272.027 535.435 271.2C533.702 270.347 532.368 269.147 531.435 267.6C530.502 266.053 530.035 264.227 530.035 262.12C530.035 260.093 530.475 258.32 531.355 256.8C532.262 255.253 533.488 254.053 535.035 253.2C536.608 252.32 538.395 251.88 540.395 251.88C541.862 251.88 543.195 252.12 544.395 252.6C545.595 253.053 546.622 253.733 547.475 254.64C548.328 255.52 548.968 256.587 549.395 257.84C549.848 259.093 550.075 260.493 550.075 262.04C550.075 262.573 549.928 262.973 549.635 263.24C549.342 263.48 548.875 263.6 548.235 263.6H535.995V260.24H544.875L544.235 260.76C544.235 259.773 544.102 258.973 543.835 258.36C543.568 257.747 543.168 257.28 542.635 256.96C542.128 256.64 541.488 256.48 540.715 256.48C539.888 256.48 539.168 256.68 538.555 257.08C537.968 257.453 537.515 258.013 537.195 258.76C536.875 259.507 536.715 260.44 536.715 261.56V261.92C536.715 263.813 537.128 265.173 537.955 266C538.808 266.8 540.115 267.2 541.875 267.2C542.462 267.2 543.128 267.133 543.875 267C544.648 266.84 545.382 266.627 546.075 266.36C546.768 266.093 547.368 266.053 547.875 266.24C548.382 266.4 548.768 266.693 549.035 267.12C549.328 267.52 549.488 267.987 549.515 268.52C549.542 269.027 549.422 269.533 549.155 270.04C548.888 270.52 548.448 270.893 547.835 271.16C546.902 271.587 545.902 271.907 544.835 272.12C543.795 272.333 542.742 272.44 541.675 272.44ZM556.743 272.36C555.623 272.36 554.756 272.053 554.143 271.44C553.529 270.827 553.223 269.933 553.223 268.76V255.52C553.223 254.373 553.516 253.493 554.103 252.88C554.716 252.267 555.583 251.96 556.703 251.96C557.823 251.96 558.676 252.267 559.263 252.88C559.849 253.493 560.143 254.373 560.143 255.52V257.72L559.703 255.76C560.263 254.587 561.089 253.653 562.183 252.96C563.303 252.24 564.623 251.88 566.143 251.88C567.583 251.88 568.809 252.227 569.823 252.92C570.863 253.613 571.609 254.667 572.063 256.08H571.503C572.116 254.773 573.036 253.747 574.263 253C575.489 252.253 576.849 251.88 578.343 251.88C579.889 251.88 581.156 252.187 582.143 252.8C583.129 253.387 583.863 254.32 584.343 255.6C584.849 256.853 585.103 258.44 585.103 260.36V268.76C585.103 269.933 584.783 270.827 584.143 271.44C583.529 272.053 582.649 272.36 581.503 272.36C580.383 272.36 579.516 272.053 578.903 271.44C578.289 270.827 577.983 269.933 577.983 268.76V260.56C577.983 259.413 577.809 258.587 577.463 258.08C577.116 257.573 576.543 257.32 575.743 257.32C574.756 257.32 573.996 257.667 573.463 258.36C572.956 259.053 572.703 260.04 572.703 261.32V268.76C572.703 269.933 572.396 270.827 571.783 271.44C571.169 272.053 570.289 272.36 569.143 272.36C567.996 272.36 567.116 272.053 566.503 271.44C565.889 270.827 565.583 269.933 565.583 268.76V260.56C565.583 259.413 565.409 258.587 565.063 258.08C564.716 257.573 564.143 257.32 563.343 257.32C562.383 257.32 561.636 257.667 561.103 258.36C560.596 259.053 560.343 260.04 560.343 261.32V268.76C560.343 271.16 559.143 272.36 556.743 272.36ZM599.956 272.44C597.556 272.44 595.476 272.027 593.716 271.2C591.983 270.347 590.65 269.147 589.716 267.6C588.783 266.053 588.316 264.227 588.316 262.12C588.316 260.093 588.756 258.32 589.636 256.8C590.543 255.253 591.77 254.053 593.316 253.2C594.89 252.32 596.676 251.88 598.676 251.88C600.143 251.88 601.476 252.12 602.676 252.6C603.876 253.053 604.903 253.733 605.756 254.64C606.61 255.52 607.25 256.587 607.676 257.84C608.13 259.093 608.356 260.493 608.356 262.04C608.356 262.573 608.21 262.973 607.916 263.24C607.623 263.48 607.156 263.6 606.516 263.6H594.276V260.24H603.156L602.516 260.76C602.516 259.773 602.383 258.973 602.116 258.36C601.85 257.747 601.45 257.28 600.916 256.96C600.41 256.64 599.77 256.48 598.996 256.48C598.17 256.48 597.45 256.68 596.836 257.08C596.25 257.453 595.796 258.013 595.476 258.76C595.156 259.507 594.996 260.44 594.996 261.56V261.92C594.996 263.813 595.41 265.173 596.236 266C597.09 266.8 598.396 267.2 600.156 267.2C600.743 267.2 601.41 267.133 602.156 267C602.93 266.84 603.663 266.627 604.356 266.36C605.05 266.093 605.65 266.053 606.156 266.24C606.663 266.4 607.05 266.693 607.316 267.12C607.61 267.52 607.77 267.987 607.796 268.52C607.823 269.027 607.703 269.533 607.436 270.04C607.17 270.52 606.73 270.893 606.116 271.16C605.183 271.587 604.183 271.907 603.116 272.12C602.076 272.333 601.023 272.44 599.956 272.44ZM614.944 272.36C613.824 272.36 612.957 272.053 612.344 271.44C611.73 270.827 611.424 269.933 611.424 268.76V255.52C611.424 254.373 611.717 253.493 612.304 252.88C612.917 252.267 613.784 251.96 614.904 251.96C616.024 251.96 616.877 252.267 617.464 252.88C618.05 253.493 618.344 254.373 618.344 255.52V257.4L617.904 255.76C618.544 254.507 619.45 253.547 620.624 252.88C621.824 252.213 623.184 251.88 624.704 251.88C626.277 251.88 627.57 252.187 628.584 252.8C629.597 253.387 630.357 254.32 630.864 255.6C631.37 256.853 631.624 258.44 631.624 260.36V268.76C631.624 269.933 631.317 270.827 630.704 271.44C630.09 272.053 629.21 272.36 628.064 272.36C626.917 272.36 626.037 272.053 625.424 271.44C624.81 270.827 624.504 269.933 624.504 268.76V260.64C624.504 259.44 624.29 258.587 623.864 258.08C623.464 257.573 622.864 257.32 622.064 257.32C620.997 257.32 620.144 257.667 619.504 258.36C618.864 259.027 618.544 259.933 618.544 261.08V268.76C618.544 271.16 617.344 272.36 614.944 272.36ZM646.002 272.44C644.002 272.44 642.348 272.133 641.042 271.52C639.762 270.907 638.802 269.987 638.162 268.76C637.522 267.507 637.202 265.947 637.202 264.08V257.56H635.842C634.988 257.56 634.322 257.333 633.842 256.88C633.388 256.427 633.162 255.773 633.162 254.92C633.162 254.067 633.388 253.427 633.842 253C634.322 252.547 634.988 252.32 635.842 252.32H637.202V249.84C637.202 248.667 637.508 247.773 638.122 247.16C638.735 246.547 639.615 246.24 640.762 246.24C641.908 246.24 642.788 246.547 643.402 247.16C644.015 247.773 644.322 248.667 644.322 249.84V252.32H647.602C648.482 252.32 649.148 252.547 649.602 253C650.082 253.427 650.322 254.067 650.322 254.92C650.322 255.773 650.082 256.427 649.602 256.88C649.148 257.333 648.482 257.56 647.602 257.56H644.322V263.84C644.322 264.827 644.548 265.56 645.002 266.04C645.482 266.493 646.228 266.72 647.242 266.72C647.615 266.72 647.975 266.68 648.322 266.6C648.668 266.52 648.988 266.48 649.282 266.48C649.708 266.453 650.055 266.587 650.322 266.88C650.588 267.147 650.722 267.773 650.722 268.76C650.722 269.56 650.602 270.24 650.362 270.8C650.122 271.333 649.695 271.72 649.082 271.96C648.708 272.093 648.202 272.2 647.562 272.28C646.922 272.387 646.402 272.44 646.002 272.44ZM660.553 272.44C659.379 272.44 658.179 272.347 656.953 272.16C655.753 272 654.659 271.693 653.673 271.24C653.006 270.973 652.526 270.613 652.233 270.16C651.966 269.707 651.833 269.227 651.833 268.72C651.859 268.213 652.006 267.76 652.273 267.36C652.566 266.933 652.939 266.64 653.393 266.48C653.873 266.293 654.406 266.307 654.993 266.52C656.113 266.92 657.113 267.213 657.993 267.4C658.899 267.56 659.766 267.64 660.593 267.64C661.579 267.64 662.286 267.507 662.713 267.24C663.139 266.947 663.353 266.573 663.353 266.12C663.353 265.72 663.206 265.413 662.913 265.2C662.646 264.987 662.259 264.84 661.753 264.76L657.313 264.04C655.659 263.747 654.379 263.147 653.473 262.24C652.566 261.307 652.113 260.093 652.113 258.6C652.113 257.213 652.499 256.027 653.273 255.04C654.073 254.027 655.153 253.253 656.513 252.72C657.899 252.16 659.486 251.88 661.273 251.88C662.473 251.88 663.566 251.973 664.553 252.16C665.539 252.32 666.499 252.627 667.433 253.08C668.019 253.32 668.433 253.667 668.673 254.12C668.913 254.573 669.006 255.053 668.953 255.56C668.899 256.04 668.726 256.493 668.433 256.92C668.166 257.32 667.793 257.6 667.313 257.76C666.833 257.893 666.273 257.853 665.633 257.64C664.753 257.293 663.966 257.04 663.273 256.88C662.606 256.72 661.979 256.64 661.393 256.64C660.299 256.64 659.526 256.787 659.073 257.08C658.619 257.373 658.393 257.747 658.393 258.2C658.393 258.547 658.513 258.84 658.753 259.08C658.993 259.293 659.366 259.44 659.873 259.52L664.313 260.28C666.019 260.547 667.326 261.133 668.233 262.04C669.166 262.92 669.633 264.12 669.633 265.64C669.633 267.8 668.806 269.48 667.153 270.68C665.499 271.853 663.299 272.44 660.553 272.44Z" fill="#D9D9D9"/>
</g>
<defs>
<filter id="filter0_d_4_2" x="347.88" y="242.28" width="325.753" height="38.16" filterUnits="userSpaceOnUse" color-interpolation-filters="sRGB">
<feFlood flood-opacity="0" result="BackgroundImageFix"/>
<feColorMatrix in="SourceAlpha" type="matrix" values="0 0 0 0 0 0 0 0 0 0 0 0 0 0 0 0 0 0 127 0" result="hardAlpha"/>
<feOffset dy="4"/>
<feGaussianBlur stdDeviation="2"/>
<feComposite in2="hardAlpha" operator="out"/>
<feColorMatrix type="matrix" values="0 0 0 0 0.85098 0 0 0 0 0.85098 0 0 0 0 0.85098 0 0 0 0.5 0"/>
<feBlend mode="normal" in2="BackgroundImageFix" result="effect1_dropShadow_4_2"/>
<feBlend mode="normal" in="SourceGraphic" in2="effect1_dropShadow_4_2" result="shape"/>
</filter>
</defs>
</svg>
