<svg width="3657" height="1849" viewBox="0 0 3657 1849" fill="none" xmlns="http://www.w3.org/2000/svg">
<g clip-path="url(#clip0_169_538)">
<rect width="1848.22" height="3656.4" transform="matrix(0 -1 1 0 0 1848.22)" fill="black" fill-opacity="0.9"/>
<rect x="50" y="1798.22" width="399.556" height="400.8" rx="199.778" transform="rotate(-90 50 1798.22)" fill="#5EA500" fill-opacity="0.2"/>
<rect x="50" y="949.111" width="400.8" height="399.556" rx="199.778" fill="white" fill-opacity="0.1"/>
<rect x="50" y="899.111" width="399.556" height="400.8" rx="199.778" transform="rotate(-90 50 899.111)" fill="#C10007" fill-opacity="0.2"/>
<rect x="50" y="449.556" width="399.556" height="400.8" rx="199.778" transform="rotate(-90 50 449.556)" fill="white" fill-opacity="0.4"/>
<rect x="500.8" y="1798.22" width="399.556" height="400.8" rx="199.778" transform="rotate(-90 500.8 1798.22)" fill="white" fill-opacity="0.4"/>
<rect x="500.8" y="1348.67" width="399.556" height="400.8" rx="199.778" transform="rotate(-90 500.8 1348.67)" fill="#C10007" fill-opacity="0.2"/>
<rect x="500.8" y="499.556" width="400.8" height="399.556" rx="199.778" fill="white" fill-opacity="0.1"/>
<rect x="500.8" y="449.556" width="399.556" height="400.8" rx="199.778" transform="rotate(-90 500.8 449.556)" fill="#5EA500" fill-opacity="0.2"/>
<rect x="951.6" y="1398.67" width="400.8" height="399.556" rx="199.778" fill="white" fill-opacity="0.1"/>
<rect x="951.6" y="1348.67" width="399.556" height="400.8" rx="199.778" transform="rotate(-90 951.6 1348.67)" fill="white" fill-opacity="0.4"/>
<rect x="951.6" y="899.111" width="399.556" height="400.8" rx="199.778" transform="rotate(-90 951.6 899.111)" fill="#5EA500" fill-opacity="0.2"/>
<rect x="951.6" y="449.556" width="399.556" height="400.8" rx="199.778" transform="rotate(-90 951.6 449.556)" fill="#C10007" fill-opacity="0.2"/>
<rect x="1402.4" y="1798.22" width="399.556" height="400.8" rx="199.778" transform="rotate(-90 1402.4 1798.22)" fill="#C10007" fill-opacity="0.2"/>
<rect x="1402.4" y="1348.67" width="399.556" height="400.8" rx="199.778" transform="rotate(-90 1402.4 1348.67)" fill="#5EA500" fill-opacity="0.2"/>
<rect x="1402.4" y="899.111" width="399.556" height="400.8" rx="199.778" transform="rotate(-90 1402.4 899.111)" fill="white" fill-opacity="0.4"/>
<rect x="1402.4" y="50" width="400.8" height="399.556" rx="199.778" fill="white" fill-opacity="0.1"/>
<rect x="1853.2" y="1798.22" width="399.556" height="400.8" rx="199.778" transform="rotate(-90 1853.2 1798.22)" fill="#5EA500" fill-opacity="0.2"/>
<rect x="1853.2" y="949.111" width="400.8" height="399.556" rx="199.778" fill="white" fill-opacity="0.1"/>
<rect x="1853.2" y="899.111" width="399.556" height="400.8" rx="199.778" transform="rotate(-90 1853.2 899.111)" fill="#C10007" fill-opacity="0.2"/>
<rect x="1853.2" y="449.556" width="399.556" height="400.8" rx="199.778" transform="rotate(-90 1853.2 449.556)" fill="white" fill-opacity="0.4"/>
<rect x="2304" y="1798.22" width="399.556" height="400.8" rx="199.778" transform="rotate(-90 2304 1798.22)" fill="white" fill-opacity="0.4"/>
<rect x="2304" y="1348.67" width="399.556" height="400.8" rx="199.778" transform="rotate(-90 2304 1348.67)" fill="#C10007" fill-opacity="0.2"/>
<rect x="2304" y="499.556" width="400.8" height="399.556" rx="199.778" fill="white" fill-opacity="0.1"/>
<rect x="2304" y="449.556" width="399.556" height="400.8" rx="199.778" transform="rotate(-90 2304 449.556)" fill="#5EA500" fill-opacity="0.2"/>
<rect x="2754.8" y="1398.67" width="400.8" height="399.556" rx="199.778" fill="white" fill-opacity="0.1"/>
<rect x="2754.8" y="1348.67" width="399.556" height="400.8" rx="199.778" transform="rotate(-90 2754.8 1348.67)" fill="white" fill-opacity="0.4"/>
<rect x="2754.8" y="899.111" width="399.556" height="400.8" rx="199.778" transform="rotate(-90 2754.8 899.111)" fill="#5EA500" fill-opacity="0.2"/>
<rect x="2754.8" y="449.556" width="399.556" height="400.8" rx="199.778" transform="rotate(-90 2754.8 449.556)" fill="#C10007" fill-opacity="0.2"/>
<rect x="3205.6" y="1798.22" width="399.556" height="400.8" rx="199.778" transform="rotate(-90 3205.6 1798.22)" fill="#C10007" fill-opacity="0.2"/>
<rect x="3205.6" y="1348.67" width="399.556" height="400.8" rx="199.778" transform="rotate(-90 3205.6 1348.67)" fill="#5EA500" fill-opacity="0.2"/>
<rect x="3205.6" y="899.111" width="399.556" height="400.8" rx="199.778" transform="rotate(-90 3205.6 899.111)" fill="white" fill-opacity="0.4"/>
<rect x="3205.6" y="50" width="400.8" height="399.556" rx="199.778" fill="white" fill-opacity="0.1"/>
</g>
<defs>
<clipPath id="clip0_169_538">
<rect width="1848.22" height="3656.4" fill="white" transform="matrix(0 -1 1 0 0 1848.22)"/>
</clipPath>
</defs>
</svg>
